<mxfile host="Electron" agent="Mozilla/5.0 (Macintosh; Intel Mac OS X 10_15_7) AppleWebKit/537.36 (KHTML, like Gecko) draw.io/24.7.5 Chrome/126.0.6478.183 Electron/31.3.0 Safari/537.36" version="24.7.5" pages="10">
  <diagram id="F0op1eHKcGNNOOc7gBRb" name="radix tree">
    <mxGraphModel dx="1159" dy="784" grid="1" gridSize="10" guides="1" tooltips="1" connect="1" arrows="1" fold="1" page="1" pageScale="1" pageWidth="850" pageHeight="1100" math="0" shadow="0">
      <root>
        <mxCell id="0" />
        <mxCell id="1" parent="0" />
        <mxCell id="A4ioL8WDDIQv4BO4qDtr-4" style="rounded=0;orthogonalLoop=1;jettySize=auto;html=1;exitX=0;exitY=1;exitDx=0;exitDy=0;entryX=1;entryY=0;entryDx=0;entryDy=0;fontSize=17;" edge="1" parent="1" source="A4ioL8WDDIQv4BO4qDtr-1" target="A4ioL8WDDIQv4BO4qDtr-2">
          <mxGeometry relative="1" as="geometry" />
        </mxCell>
        <mxCell id="A4ioL8WDDIQv4BO4qDtr-6" value="0" style="edgeLabel;html=1;align=center;verticalAlign=middle;resizable=0;points=[];fontSize=17;" vertex="1" connectable="0" parent="A4ioL8WDDIQv4BO4qDtr-4">
          <mxGeometry x="-0.0931" y="2" relative="1" as="geometry">
            <mxPoint x="7" y="6" as="offset" />
          </mxGeometry>
        </mxCell>
        <mxCell id="A4ioL8WDDIQv4BO4qDtr-5" style="edgeStyle=none;rounded=0;orthogonalLoop=1;jettySize=auto;html=1;exitX=1;exitY=1;exitDx=0;exitDy=0;entryX=0;entryY=0;entryDx=0;entryDy=0;fontSize=17;" edge="1" parent="1" source="A4ioL8WDDIQv4BO4qDtr-1" target="A4ioL8WDDIQv4BO4qDtr-3">
          <mxGeometry relative="1" as="geometry" />
        </mxCell>
        <mxCell id="A4ioL8WDDIQv4BO4qDtr-7" value="1" style="edgeLabel;html=1;align=center;verticalAlign=middle;resizable=0;points=[];fontSize=17;" vertex="1" connectable="0" parent="A4ioL8WDDIQv4BO4qDtr-5">
          <mxGeometry x="-0.0125" y="3" relative="1" as="geometry">
            <mxPoint x="8" y="-3" as="offset" />
          </mxGeometry>
        </mxCell>
        <mxCell id="A4ioL8WDDIQv4BO4qDtr-1" value="" style="ellipse;whiteSpace=wrap;html=1;aspect=fixed;" vertex="1" parent="1">
          <mxGeometry x="350" y="160" width="50" height="50" as="geometry" />
        </mxCell>
        <mxCell id="A4ioL8WDDIQv4BO4qDtr-11" style="edgeStyle=none;rounded=0;orthogonalLoop=1;jettySize=auto;html=1;exitX=0.68;exitY=1.02;exitDx=0;exitDy=0;entryX=0.38;entryY=0.02;entryDx=0;entryDy=0;fontSize=17;exitPerimeter=0;entryPerimeter=0;" edge="1" parent="1" source="A4ioL8WDDIQv4BO4qDtr-2" target="A4ioL8WDDIQv4BO4qDtr-8">
          <mxGeometry relative="1" as="geometry" />
        </mxCell>
        <mxCell id="A4ioL8WDDIQv4BO4qDtr-13" value="1" style="edgeLabel;html=1;align=center;verticalAlign=middle;resizable=0;points=[];fontSize=17;" vertex="1" connectable="0" parent="A4ioL8WDDIQv4BO4qDtr-11">
          <mxGeometry x="-0.312" y="-2" relative="1" as="geometry">
            <mxPoint x="19" as="offset" />
          </mxGeometry>
        </mxCell>
        <mxCell id="A4ioL8WDDIQv4BO4qDtr-2" value="0" style="ellipse;whiteSpace=wrap;html=1;aspect=fixed;fontSize=17;" vertex="1" parent="1">
          <mxGeometry x="220" y="240" width="50" height="50" as="geometry" />
        </mxCell>
        <mxCell id="A4ioL8WDDIQv4BO4qDtr-16" style="edgeStyle=none;rounded=0;orthogonalLoop=1;jettySize=auto;html=1;exitX=0;exitY=1;exitDx=0;exitDy=0;entryX=0.7;entryY=0.04;entryDx=0;entryDy=0;entryPerimeter=0;fontSize=17;" edge="1" parent="1" source="A4ioL8WDDIQv4BO4qDtr-3" target="A4ioL8WDDIQv4BO4qDtr-10">
          <mxGeometry relative="1" as="geometry" />
        </mxCell>
        <mxCell id="A4ioL8WDDIQv4BO4qDtr-18" value="0" style="edgeLabel;html=1;align=center;verticalAlign=middle;resizable=0;points=[];fontSize=17;" vertex="1" connectable="0" parent="A4ioL8WDDIQv4BO4qDtr-16">
          <mxGeometry x="-0.3538" y="2" relative="1" as="geometry">
            <mxPoint x="-19" as="offset" />
          </mxGeometry>
        </mxCell>
        <mxCell id="A4ioL8WDDIQv4BO4qDtr-3" value="" style="ellipse;whiteSpace=wrap;html=1;aspect=fixed;fontSize=17;" vertex="1" parent="1">
          <mxGeometry x="490" y="240" width="50" height="50" as="geometry" />
        </mxCell>
        <mxCell id="A4ioL8WDDIQv4BO4qDtr-12" style="edgeStyle=none;rounded=0;orthogonalLoop=1;jettySize=auto;html=1;exitX=1;exitY=1;exitDx=0;exitDy=0;entryX=0;entryY=0;entryDx=0;entryDy=0;fontSize=17;" edge="1" parent="1" source="A4ioL8WDDIQv4BO4qDtr-8" target="A4ioL8WDDIQv4BO4qDtr-9">
          <mxGeometry relative="1" as="geometry" />
        </mxCell>
        <mxCell id="A4ioL8WDDIQv4BO4qDtr-14" value="1" style="edgeLabel;html=1;align=center;verticalAlign=middle;resizable=0;points=[];fontSize=17;" vertex="1" connectable="0" parent="A4ioL8WDDIQv4BO4qDtr-12">
          <mxGeometry x="0.105" relative="1" as="geometry">
            <mxPoint x="4" y="-13" as="offset" />
          </mxGeometry>
        </mxCell>
        <mxCell id="A4ioL8WDDIQv4BO4qDtr-8" value="" style="ellipse;whiteSpace=wrap;html=1;aspect=fixed;fontSize=17;" vertex="1" parent="1">
          <mxGeometry x="260" y="330" width="50" height="50" as="geometry" />
        </mxCell>
        <mxCell id="A4ioL8WDDIQv4BO4qDtr-9" value="011" style="ellipse;whiteSpace=wrap;html=1;aspect=fixed;fontSize=17;" vertex="1" parent="1">
          <mxGeometry x="320" y="400" width="50" height="50" as="geometry" />
        </mxCell>
        <mxCell id="A4ioL8WDDIQv4BO4qDtr-17" style="edgeStyle=none;rounded=0;orthogonalLoop=1;jettySize=auto;html=1;exitX=0;exitY=1;exitDx=0;exitDy=0;entryX=0.5;entryY=0;entryDx=0;entryDy=0;fontSize=17;" edge="1" parent="1" source="A4ioL8WDDIQv4BO4qDtr-10" target="A4ioL8WDDIQv4BO4qDtr-15">
          <mxGeometry relative="1" as="geometry" />
        </mxCell>
        <mxCell id="A4ioL8WDDIQv4BO4qDtr-19" value="0" style="edgeLabel;html=1;align=center;verticalAlign=middle;resizable=0;points=[];fontSize=17;" vertex="1" connectable="0" parent="A4ioL8WDDIQv4BO4qDtr-17">
          <mxGeometry x="0.0691" y="-4" relative="1" as="geometry">
            <mxPoint y="-16" as="offset" />
          </mxGeometry>
        </mxCell>
        <mxCell id="A4ioL8WDDIQv4BO4qDtr-22" style="edgeStyle=none;rounded=0;orthogonalLoop=1;jettySize=auto;html=1;exitX=1;exitY=1;exitDx=0;exitDy=0;entryX=0;entryY=0;entryDx=0;entryDy=0;fontSize=17;" edge="1" parent="1" source="A4ioL8WDDIQv4BO4qDtr-10" target="A4ioL8WDDIQv4BO4qDtr-20">
          <mxGeometry relative="1" as="geometry" />
        </mxCell>
        <mxCell id="A4ioL8WDDIQv4BO4qDtr-24" value="1" style="edgeLabel;html=1;align=center;verticalAlign=middle;resizable=0;points=[];fontSize=17;" vertex="1" connectable="0" parent="A4ioL8WDDIQv4BO4qDtr-22">
          <mxGeometry x="0.0499" y="1" relative="1" as="geometry">
            <mxPoint x="13" y="-12" as="offset" />
          </mxGeometry>
        </mxCell>
        <mxCell id="A4ioL8WDDIQv4BO4qDtr-10" value="10" style="ellipse;whiteSpace=wrap;html=1;aspect=fixed;fontSize=17;" vertex="1" parent="1">
          <mxGeometry x="440" y="320" width="50" height="50" as="geometry" />
        </mxCell>
        <mxCell id="A4ioL8WDDIQv4BO4qDtr-15" value="100" style="ellipse;whiteSpace=wrap;html=1;aspect=fixed;fontSize=17;" vertex="1" parent="1">
          <mxGeometry x="400" y="400" width="50" height="50" as="geometry" />
        </mxCell>
        <mxCell id="A4ioL8WDDIQv4BO4qDtr-23" style="edgeStyle=none;rounded=0;orthogonalLoop=1;jettySize=auto;html=1;exitX=1;exitY=1;exitDx=0;exitDy=0;entryX=0;entryY=0;entryDx=0;entryDy=0;fontSize=17;" edge="1" parent="1" source="A4ioL8WDDIQv4BO4qDtr-20" target="A4ioL8WDDIQv4BO4qDtr-21">
          <mxGeometry relative="1" as="geometry" />
        </mxCell>
        <mxCell id="A4ioL8WDDIQv4BO4qDtr-25" value="1" style="edgeLabel;html=1;align=center;verticalAlign=middle;resizable=0;points=[];fontSize=17;" vertex="1" connectable="0" parent="A4ioL8WDDIQv4BO4qDtr-23">
          <mxGeometry x="0.0452" y="-3" relative="1" as="geometry">
            <mxPoint x="12" y="-23" as="offset" />
          </mxGeometry>
        </mxCell>
        <mxCell id="A4ioL8WDDIQv4BO4qDtr-20" value="" style="ellipse;whiteSpace=wrap;html=1;aspect=fixed;fontSize=17;" vertex="1" parent="1">
          <mxGeometry x="510" y="400" width="50" height="50" as="geometry" />
        </mxCell>
        <mxCell id="A4ioL8WDDIQv4BO4qDtr-21" value="1011" style="ellipse;whiteSpace=wrap;html=1;aspect=fixed;fontSize=17;" vertex="1" parent="1">
          <mxGeometry x="570" y="470" width="50" height="50" as="geometry" />
        </mxCell>
      </root>
    </mxGraphModel>
  </diagram>
  <diagram id="Ga6VPkoPA0WHg4PEsufi" name="bid endian trie">
    <mxGraphModel dx="1159" dy="784" grid="1" gridSize="10" guides="1" tooltips="1" connect="1" arrows="1" fold="1" page="1" pageScale="1" pageWidth="850" pageHeight="1100" math="0" shadow="0">
      <root>
        <mxCell id="0" />
        <mxCell id="1" parent="0" />
        <mxCell id="dqzUMJC_XPg96nmKwtRn-1" style="rounded=0;orthogonalLoop=1;jettySize=auto;html=1;exitX=0;exitY=1;exitDx=0;exitDy=0;entryX=1;entryY=0;entryDx=0;entryDy=0;fontSize=17;" edge="1" parent="1" source="dqzUMJC_XPg96nmKwtRn-5" target="dqzUMJC_XPg96nmKwtRn-8">
          <mxGeometry relative="1" as="geometry" />
        </mxCell>
        <mxCell id="dqzUMJC_XPg96nmKwtRn-2" value="0" style="edgeLabel;html=1;align=center;verticalAlign=middle;resizable=0;points=[];fontSize=17;" vertex="1" connectable="0" parent="dqzUMJC_XPg96nmKwtRn-1">
          <mxGeometry x="-0.0931" y="2" relative="1" as="geometry">
            <mxPoint x="7" y="6" as="offset" />
          </mxGeometry>
        </mxCell>
        <mxCell id="dqzUMJC_XPg96nmKwtRn-3" style="edgeStyle=none;rounded=0;orthogonalLoop=1;jettySize=auto;html=1;exitX=1;exitY=1;exitDx=0;exitDy=0;entryX=0;entryY=0;entryDx=0;entryDy=0;fontSize=17;" edge="1" parent="1" source="dqzUMJC_XPg96nmKwtRn-5" target="dqzUMJC_XPg96nmKwtRn-11">
          <mxGeometry relative="1" as="geometry" />
        </mxCell>
        <mxCell id="dqzUMJC_XPg96nmKwtRn-4" value="1" style="edgeLabel;html=1;align=center;verticalAlign=middle;resizable=0;points=[];fontSize=17;" vertex="1" connectable="0" parent="dqzUMJC_XPg96nmKwtRn-3">
          <mxGeometry x="-0.0125" y="3" relative="1" as="geometry">
            <mxPoint x="8" y="-3" as="offset" />
          </mxGeometry>
        </mxCell>
        <mxCell id="dqzUMJC_XPg96nmKwtRn-5" value="" style="ellipse;whiteSpace=wrap;html=1;aspect=fixed;" vertex="1" parent="1">
          <mxGeometry x="340" y="100" width="50" height="50" as="geometry" />
        </mxCell>
        <mxCell id="dqzUMJC_XPg96nmKwtRn-6" style="edgeStyle=none;rounded=0;orthogonalLoop=1;jettySize=auto;html=1;exitX=1;exitY=1;exitDx=0;exitDy=0;entryX=0;entryY=0;entryDx=0;entryDy=0;fontSize=17;" edge="1" parent="1" source="dqzUMJC_XPg96nmKwtRn-8" target="dqzUMJC_XPg96nmKwtRn-14">
          <mxGeometry relative="1" as="geometry" />
        </mxCell>
        <mxCell id="dqzUMJC_XPg96nmKwtRn-7" value="1" style="edgeLabel;html=1;align=center;verticalAlign=middle;resizable=0;points=[];fontSize=17;" vertex="1" connectable="0" parent="dqzUMJC_XPg96nmKwtRn-6">
          <mxGeometry x="-0.312" y="-2" relative="1" as="geometry">
            <mxPoint x="19" as="offset" />
          </mxGeometry>
        </mxCell>
        <mxCell id="dqzUMJC_XPg96nmKwtRn-27" style="edgeStyle=none;rounded=0;orthogonalLoop=1;jettySize=auto;html=1;exitX=0;exitY=1;exitDx=0;exitDy=0;entryX=1;entryY=0;entryDx=0;entryDy=0;fontSize=17;" edge="1" parent="1" source="dqzUMJC_XPg96nmKwtRn-8" target="dqzUMJC_XPg96nmKwtRn-26">
          <mxGeometry relative="1" as="geometry" />
        </mxCell>
        <mxCell id="dqzUMJC_XPg96nmKwtRn-28" value="0" style="edgeLabel;html=1;align=center;verticalAlign=middle;resizable=0;points=[];fontSize=17;" vertex="1" connectable="0" parent="dqzUMJC_XPg96nmKwtRn-27">
          <mxGeometry x="-0.1628" y="1" relative="1" as="geometry">
            <mxPoint x="-18" as="offset" />
          </mxGeometry>
        </mxCell>
        <mxCell id="dqzUMJC_XPg96nmKwtRn-8" value="0" style="ellipse;whiteSpace=wrap;html=1;aspect=fixed;fontSize=17;" vertex="1" parent="1">
          <mxGeometry x="270" y="180" width="50" height="50" as="geometry" />
        </mxCell>
        <mxCell id="dqzUMJC_XPg96nmKwtRn-9" style="edgeStyle=none;rounded=0;orthogonalLoop=1;jettySize=auto;html=1;exitX=1;exitY=1;exitDx=0;exitDy=0;entryX=0;entryY=0;entryDx=0;entryDy=0;fontSize=17;" edge="1" parent="1" source="dqzUMJC_XPg96nmKwtRn-11" target="dqzUMJC_XPg96nmKwtRn-20">
          <mxGeometry relative="1" as="geometry" />
        </mxCell>
        <mxCell id="dqzUMJC_XPg96nmKwtRn-10" value="1" style="edgeLabel;html=1;align=center;verticalAlign=middle;resizable=0;points=[];fontSize=17;" vertex="1" connectable="0" parent="dqzUMJC_XPg96nmKwtRn-9">
          <mxGeometry x="-0.3538" y="2" relative="1" as="geometry">
            <mxPoint x="-19" as="offset" />
          </mxGeometry>
        </mxCell>
        <mxCell id="dqzUMJC_XPg96nmKwtRn-11" value="" style="ellipse;whiteSpace=wrap;html=1;aspect=fixed;fontSize=17;" vertex="1" parent="1">
          <mxGeometry x="410" y="180" width="50" height="50" as="geometry" />
        </mxCell>
        <mxCell id="dqzUMJC_XPg96nmKwtRn-12" style="edgeStyle=none;rounded=0;orthogonalLoop=1;jettySize=auto;html=1;exitX=1;exitY=1;exitDx=0;exitDy=0;entryX=0;entryY=0;entryDx=0;entryDy=0;fontSize=17;" edge="1" parent="1" source="dqzUMJC_XPg96nmKwtRn-14" target="dqzUMJC_XPg96nmKwtRn-15">
          <mxGeometry relative="1" as="geometry" />
        </mxCell>
        <mxCell id="dqzUMJC_XPg96nmKwtRn-13" value="1" style="edgeLabel;html=1;align=center;verticalAlign=middle;resizable=0;points=[];fontSize=17;" vertex="1" connectable="0" parent="dqzUMJC_XPg96nmKwtRn-12">
          <mxGeometry x="0.105" relative="1" as="geometry">
            <mxPoint x="4" y="-13" as="offset" />
          </mxGeometry>
        </mxCell>
        <mxCell id="dqzUMJC_XPg96nmKwtRn-14" value="" style="ellipse;whiteSpace=wrap;html=1;aspect=fixed;fontSize=17;" vertex="1" parent="1">
          <mxGeometry x="340" y="260" width="50" height="50" as="geometry" />
        </mxCell>
        <mxCell id="dqzUMJC_XPg96nmKwtRn-15" value="011" style="ellipse;whiteSpace=wrap;html=1;aspect=fixed;fontSize=17;" vertex="1" parent="1">
          <mxGeometry x="400" y="330" width="50" height="50" as="geometry" />
        </mxCell>
        <mxCell id="dqzUMJC_XPg96nmKwtRn-20" value="11" style="ellipse;whiteSpace=wrap;html=1;aspect=fixed;fontSize=17;" vertex="1" parent="1">
          <mxGeometry x="480" y="260" width="50" height="50" as="geometry" />
        </mxCell>
        <mxCell id="dqzUMJC_XPg96nmKwtRn-30" style="edgeStyle=none;rounded=0;orthogonalLoop=1;jettySize=auto;html=1;exitX=1;exitY=1;exitDx=0;exitDy=0;entryX=0;entryY=0;entryDx=0;entryDy=0;fontSize=17;" edge="1" parent="1" source="dqzUMJC_XPg96nmKwtRn-26" target="dqzUMJC_XPg96nmKwtRn-29">
          <mxGeometry relative="1" as="geometry" />
        </mxCell>
        <mxCell id="dqzUMJC_XPg96nmKwtRn-31" value="1" style="edgeLabel;html=1;align=center;verticalAlign=middle;resizable=0;points=[];fontSize=17;" vertex="1" connectable="0" parent="dqzUMJC_XPg96nmKwtRn-30">
          <mxGeometry x="-0.2572" relative="1" as="geometry">
            <mxPoint x="11" y="1" as="offset" />
          </mxGeometry>
        </mxCell>
        <mxCell id="dqzUMJC_XPg96nmKwtRn-26" value="" style="ellipse;whiteSpace=wrap;html=1;aspect=fixed;fontSize=17;" vertex="1" parent="1">
          <mxGeometry x="200" y="260" width="50" height="50" as="geometry" />
        </mxCell>
        <mxCell id="dqzUMJC_XPg96nmKwtRn-33" value="1" style="edgeStyle=none;rounded=0;orthogonalLoop=1;jettySize=auto;html=1;exitX=1;exitY=1;exitDx=0;exitDy=0;entryX=0;entryY=0;entryDx=0;entryDy=0;fontSize=17;" edge="1" parent="1" source="dqzUMJC_XPg96nmKwtRn-29" target="dqzUMJC_XPg96nmKwtRn-32">
          <mxGeometry x="-0.5277" y="14" relative="1" as="geometry">
            <mxPoint as="offset" />
          </mxGeometry>
        </mxCell>
        <mxCell id="dqzUMJC_XPg96nmKwtRn-29" value="" style="ellipse;whiteSpace=wrap;html=1;aspect=fixed;fontSize=17;" vertex="1" parent="1">
          <mxGeometry x="260" y="330" width="50" height="50" as="geometry" />
        </mxCell>
        <mxCell id="dqzUMJC_XPg96nmKwtRn-32" value="0011" style="ellipse;whiteSpace=wrap;html=1;aspect=fixed;fontSize=17;" vertex="1" parent="1">
          <mxGeometry x="320" y="400" width="50" height="50" as="geometry" />
        </mxCell>
      </root>
    </mxGraphModel>
  </diagram>
  <diagram name="int trie" id="aMHliRD51LjfPtEOiQ2C">
    <mxGraphModel dx="1159" dy="784" grid="1" gridSize="10" guides="1" tooltips="1" connect="1" arrows="1" fold="1" page="1" pageScale="1" pageWidth="850" pageHeight="1100" math="0" shadow="0">
      <root>
        <mxCell id="yiVa6_dQtFy_vGeuyYO_-0" />
        <mxCell id="yiVa6_dQtFy_vGeuyYO_-1" parent="yiVa6_dQtFy_vGeuyYO_-0" />
        <mxCell id="yiVa6_dQtFy_vGeuyYO_-2" style="rounded=0;orthogonalLoop=1;jettySize=auto;html=1;exitX=0;exitY=1;exitDx=0;exitDy=0;entryX=1;entryY=0;entryDx=0;entryDy=0;fontSize=17;" edge="1" parent="yiVa6_dQtFy_vGeuyYO_-1" source="yiVa6_dQtFy_vGeuyYO_-6" target="yiVa6_dQtFy_vGeuyYO_-11">
          <mxGeometry relative="1" as="geometry" />
        </mxCell>
        <mxCell id="yiVa6_dQtFy_vGeuyYO_-3" value="0" style="edgeLabel;html=1;align=center;verticalAlign=middle;resizable=0;points=[];fontSize=17;" vertex="1" connectable="0" parent="yiVa6_dQtFy_vGeuyYO_-2">
          <mxGeometry x="-0.0931" y="2" relative="1" as="geometry">
            <mxPoint x="7" y="6" as="offset" />
          </mxGeometry>
        </mxCell>
        <mxCell id="yiVa6_dQtFy_vGeuyYO_-4" style="edgeStyle=none;rounded=0;orthogonalLoop=1;jettySize=auto;html=1;exitX=1;exitY=1;exitDx=0;exitDy=0;entryX=0;entryY=0;entryDx=0;entryDy=0;fontSize=17;" edge="1" parent="yiVa6_dQtFy_vGeuyYO_-1" source="yiVa6_dQtFy_vGeuyYO_-6" target="yiVa6_dQtFy_vGeuyYO_-14">
          <mxGeometry relative="1" as="geometry" />
        </mxCell>
        <mxCell id="yiVa6_dQtFy_vGeuyYO_-5" value="1" style="edgeLabel;html=1;align=center;verticalAlign=middle;resizable=0;points=[];fontSize=17;" vertex="1" connectable="0" parent="yiVa6_dQtFy_vGeuyYO_-4">
          <mxGeometry x="-0.0125" y="3" relative="1" as="geometry">
            <mxPoint x="8" y="-12" as="offset" />
          </mxGeometry>
        </mxCell>
        <mxCell id="yiVa6_dQtFy_vGeuyYO_-6" value="" style="ellipse;whiteSpace=wrap;html=1;aspect=fixed;" vertex="1" parent="yiVa6_dQtFy_vGeuyYO_-1">
          <mxGeometry x="320" y="100" width="50" height="50" as="geometry" />
        </mxCell>
        <mxCell id="yiVa6_dQtFy_vGeuyYO_-9" style="edgeStyle=none;rounded=0;orthogonalLoop=1;jettySize=auto;html=1;exitX=0;exitY=1;exitDx=0;exitDy=0;entryX=1;entryY=0;entryDx=0;entryDy=0;fontSize=17;" edge="1" parent="yiVa6_dQtFy_vGeuyYO_-1" source="yiVa6_dQtFy_vGeuyYO_-11" target="yiVa6_dQtFy_vGeuyYO_-22">
          <mxGeometry relative="1" as="geometry" />
        </mxCell>
        <mxCell id="yiVa6_dQtFy_vGeuyYO_-10" value="0" style="edgeLabel;html=1;align=center;verticalAlign=middle;resizable=0;points=[];fontSize=17;" vertex="1" connectable="0" parent="yiVa6_dQtFy_vGeuyYO_-9">
          <mxGeometry x="-0.1628" y="1" relative="1" as="geometry">
            <mxPoint x="-19" y="-8" as="offset" />
          </mxGeometry>
        </mxCell>
        <mxCell id="yiVa6_dQtFy_vGeuyYO_-11" value="0" style="ellipse;whiteSpace=wrap;html=1;aspect=fixed;fontSize=17;" vertex="1" parent="yiVa6_dQtFy_vGeuyYO_-1">
          <mxGeometry x="240" y="170" width="50" height="50" as="geometry" />
        </mxCell>
        <mxCell id="yHLr6CQHM0hv-lv52INT-0" value="0" style="edgeStyle=none;rounded=0;orthogonalLoop=1;jettySize=auto;html=1;exitX=0;exitY=1;exitDx=0;exitDy=0;fontSize=17;" edge="1" parent="yiVa6_dQtFy_vGeuyYO_-1" source="yiVa6_dQtFy_vGeuyYO_-14" target="yiVa6_dQtFy_vGeuyYO_-17">
          <mxGeometry x="-0.1777" y="-16" relative="1" as="geometry">
            <mxPoint as="offset" />
          </mxGeometry>
        </mxCell>
        <mxCell id="yiVa6_dQtFy_vGeuyYO_-14" value="1:a" style="ellipse;whiteSpace=wrap;html=1;aspect=fixed;fontSize=17;" vertex="1" parent="yiVa6_dQtFy_vGeuyYO_-1">
          <mxGeometry x="410" y="180" width="50" height="50" as="geometry" />
        </mxCell>
        <mxCell id="yiVa6_dQtFy_vGeuyYO_-15" style="edgeStyle=none;rounded=0;orthogonalLoop=1;jettySize=auto;html=1;exitX=1;exitY=1;exitDx=0;exitDy=0;entryX=0;entryY=0;entryDx=0;entryDy=0;fontSize=17;" edge="1" parent="yiVa6_dQtFy_vGeuyYO_-1" source="yiVa6_dQtFy_vGeuyYO_-17" target="yiVa6_dQtFy_vGeuyYO_-18">
          <mxGeometry relative="1" as="geometry" />
        </mxCell>
        <mxCell id="yiVa6_dQtFy_vGeuyYO_-16" value="1" style="edgeLabel;html=1;align=center;verticalAlign=middle;resizable=0;points=[];fontSize=17;" vertex="1" connectable="0" parent="yiVa6_dQtFy_vGeuyYO_-15">
          <mxGeometry x="0.105" relative="1" as="geometry">
            <mxPoint x="4" y="-13" as="offset" />
          </mxGeometry>
        </mxCell>
        <mxCell id="yHLr6CQHM0hv-lv52INT-2" style="edgeStyle=none;rounded=0;orthogonalLoop=1;jettySize=auto;html=1;exitX=0;exitY=1;exitDx=0;exitDy=0;entryX=1;entryY=0;entryDx=0;entryDy=0;fontSize=17;" edge="1" parent="yiVa6_dQtFy_vGeuyYO_-1" source="yiVa6_dQtFy_vGeuyYO_-17" target="yHLr6CQHM0hv-lv52INT-1">
          <mxGeometry relative="1" as="geometry" />
        </mxCell>
        <mxCell id="yHLr6CQHM0hv-lv52INT-3" value="0" style="edgeLabel;html=1;align=center;verticalAlign=middle;resizable=0;points=[];fontSize=17;" vertex="1" connectable="0" parent="yHLr6CQHM0hv-lv52INT-2">
          <mxGeometry x="-0.1312" relative="1" as="geometry">
            <mxPoint x="-7" y="-13" as="offset" />
          </mxGeometry>
        </mxCell>
        <mxCell id="yiVa6_dQtFy_vGeuyYO_-17" value="" style="ellipse;whiteSpace=wrap;html=1;aspect=fixed;fontSize=17;" vertex="1" parent="yiVa6_dQtFy_vGeuyYO_-1">
          <mxGeometry x="360" y="240" width="50" height="50" as="geometry" />
        </mxCell>
        <mxCell id="yiVa6_dQtFy_vGeuyYO_-18" value="5:c" style="ellipse;whiteSpace=wrap;html=1;aspect=fixed;fontSize=17;" vertex="1" parent="yiVa6_dQtFy_vGeuyYO_-1">
          <mxGeometry x="420" y="310" width="50" height="50" as="geometry" />
        </mxCell>
        <mxCell id="yiVa6_dQtFy_vGeuyYO_-20" style="edgeStyle=none;rounded=0;orthogonalLoop=1;jettySize=auto;html=1;exitX=1;exitY=1;exitDx=0;exitDy=0;entryX=0;entryY=0;entryDx=0;entryDy=0;fontSize=17;" edge="1" parent="yiVa6_dQtFy_vGeuyYO_-1" source="yiVa6_dQtFy_vGeuyYO_-22" target="yiVa6_dQtFy_vGeuyYO_-24">
          <mxGeometry relative="1" as="geometry" />
        </mxCell>
        <mxCell id="yiVa6_dQtFy_vGeuyYO_-21" value="1" style="edgeLabel;html=1;align=center;verticalAlign=middle;resizable=0;points=[];fontSize=17;" vertex="1" connectable="0" parent="yiVa6_dQtFy_vGeuyYO_-20">
          <mxGeometry x="-0.2572" relative="1" as="geometry">
            <mxPoint x="11" y="-12" as="offset" />
          </mxGeometry>
        </mxCell>
        <mxCell id="yiVa6_dQtFy_vGeuyYO_-22" value="" style="ellipse;whiteSpace=wrap;html=1;aspect=fixed;fontSize=17;" vertex="1" parent="yiVa6_dQtFy_vGeuyYO_-1">
          <mxGeometry x="160" y="240" width="50" height="50" as="geometry" />
        </mxCell>
        <mxCell id="yiVa6_dQtFy_vGeuyYO_-24" value="4:b" style="ellipse;whiteSpace=wrap;html=1;aspect=fixed;fontSize=17;" vertex="1" parent="yiVa6_dQtFy_vGeuyYO_-1">
          <mxGeometry x="230" y="310" width="50" height="50" as="geometry" />
        </mxCell>
        <mxCell id="yHLr6CQHM0hv-lv52INT-5" style="edgeStyle=none;rounded=0;orthogonalLoop=1;jettySize=auto;html=1;exitX=1;exitY=1;exitDx=0;exitDy=0;entryX=0;entryY=0;entryDx=0;entryDy=0;fontSize=17;" edge="1" parent="yiVa6_dQtFy_vGeuyYO_-1" source="yHLr6CQHM0hv-lv52INT-1" target="yHLr6CQHM0hv-lv52INT-4">
          <mxGeometry relative="1" as="geometry" />
        </mxCell>
        <mxCell id="yHLr6CQHM0hv-lv52INT-6" value="1" style="edgeLabel;html=1;align=center;verticalAlign=middle;resizable=0;points=[];fontSize=17;" vertex="1" connectable="0" parent="yHLr6CQHM0hv-lv52INT-5">
          <mxGeometry x="-0.1533" y="2" relative="1" as="geometry">
            <mxPoint x="5" y="-6" as="offset" />
          </mxGeometry>
        </mxCell>
        <mxCell id="yHLr6CQHM0hv-lv52INT-1" value="" style="ellipse;whiteSpace=wrap;html=1;aspect=fixed;fontSize=17;" vertex="1" parent="yiVa6_dQtFy_vGeuyYO_-1">
          <mxGeometry x="300" y="310" width="50" height="50" as="geometry" />
        </mxCell>
        <mxCell id="yHLr6CQHM0hv-lv52INT-4" value="9:d" style="ellipse;whiteSpace=wrap;html=1;aspect=fixed;fontSize=17;" vertex="1" parent="yiVa6_dQtFy_vGeuyYO_-1">
          <mxGeometry x="360" y="380" width="50" height="50" as="geometry" />
        </mxCell>
      </root>
    </mxGraphModel>
  </diagram>
  <diagram id="-hup0V_xFu_Bl-zXlh6z" name="little endian int tree">
    <mxGraphModel dx="1159" dy="784" grid="1" gridSize="10" guides="1" tooltips="1" connect="1" arrows="1" fold="1" page="1" pageScale="1" pageWidth="850" pageHeight="1100" math="0" shadow="0">
      <root>
        <mxCell id="0" />
        <mxCell id="1" parent="0" />
        <mxCell id="pwTNeVYWsUZbSl7__LR2-1" style="rounded=0;orthogonalLoop=1;jettySize=auto;html=1;exitX=0;exitY=1;exitDx=0;exitDy=0;entryX=1;entryY=0;entryDx=0;entryDy=0;fontSize=17;" edge="1" parent="1" source="pwTNeVYWsUZbSl7__LR2-5" target="pwTNeVYWsUZbSl7__LR2-8">
          <mxGeometry relative="1" as="geometry" />
        </mxCell>
        <mxCell id="pwTNeVYWsUZbSl7__LR2-2" value="001" style="edgeLabel;html=1;align=center;verticalAlign=middle;resizable=0;points=[];fontSize=17;" vertex="1" connectable="0" parent="pwTNeVYWsUZbSl7__LR2-1">
          <mxGeometry x="-0.0931" y="2" relative="1" as="geometry">
            <mxPoint x="22" y="10" as="offset" />
          </mxGeometry>
        </mxCell>
        <mxCell id="pwTNeVYWsUZbSl7__LR2-3" style="edgeStyle=none;rounded=0;orthogonalLoop=1;jettySize=auto;html=1;exitX=1;exitY=1;exitDx=0;exitDy=0;entryX=0;entryY=0;entryDx=0;entryDy=0;fontSize=17;" edge="1" parent="1" source="pwTNeVYWsUZbSl7__LR2-5" target="pwTNeVYWsUZbSl7__LR2-10">
          <mxGeometry relative="1" as="geometry" />
        </mxCell>
        <mxCell id="pwTNeVYWsUZbSl7__LR2-4" value="1" style="edgeLabel;html=1;align=center;verticalAlign=middle;resizable=0;points=[];fontSize=17;" vertex="1" connectable="0" parent="pwTNeVYWsUZbSl7__LR2-3">
          <mxGeometry x="-0.0125" y="3" relative="1" as="geometry">
            <mxPoint x="8" y="-12" as="offset" />
          </mxGeometry>
        </mxCell>
        <mxCell id="pwTNeVYWsUZbSl7__LR2-5" value="" style="ellipse;whiteSpace=wrap;html=1;aspect=fixed;" vertex="1" parent="1">
          <mxGeometry x="320" y="100" width="50" height="50" as="geometry" />
        </mxCell>
        <mxCell id="pwTNeVYWsUZbSl7__LR2-8" value="4:b" style="ellipse;whiteSpace=wrap;html=1;aspect=fixed;fontSize=17;" vertex="1" parent="1">
          <mxGeometry x="240" y="170" width="50" height="50" as="geometry" />
        </mxCell>
        <mxCell id="pwTNeVYWsUZbSl7__LR2-9" value="0" style="edgeStyle=none;rounded=0;orthogonalLoop=1;jettySize=auto;html=1;exitX=0;exitY=1;exitDx=0;exitDy=0;fontSize=17;" edge="1" parent="1" source="pwTNeVYWsUZbSl7__LR2-10" target="pwTNeVYWsUZbSl7__LR2-15">
          <mxGeometry x="-0.1777" y="-16" relative="1" as="geometry">
            <mxPoint as="offset" />
          </mxGeometry>
        </mxCell>
        <mxCell id="pwTNeVYWsUZbSl7__LR2-10" value="1:a" style="ellipse;whiteSpace=wrap;html=1;aspect=fixed;fontSize=17;" vertex="1" parent="1">
          <mxGeometry x="410" y="180" width="50" height="50" as="geometry" />
        </mxCell>
        <mxCell id="pwTNeVYWsUZbSl7__LR2-11" style="edgeStyle=none;rounded=0;orthogonalLoop=1;jettySize=auto;html=1;exitX=1;exitY=1;exitDx=0;exitDy=0;entryX=0;entryY=0;entryDx=0;entryDy=0;fontSize=17;" edge="1" parent="1" source="pwTNeVYWsUZbSl7__LR2-15" target="pwTNeVYWsUZbSl7__LR2-16">
          <mxGeometry relative="1" as="geometry" />
        </mxCell>
        <mxCell id="pwTNeVYWsUZbSl7__LR2-12" value="1" style="edgeLabel;html=1;align=center;verticalAlign=middle;resizable=0;points=[];fontSize=17;" vertex="1" connectable="0" parent="pwTNeVYWsUZbSl7__LR2-11">
          <mxGeometry x="0.105" relative="1" as="geometry">
            <mxPoint x="4" y="-13" as="offset" />
          </mxGeometry>
        </mxCell>
        <mxCell id="pwTNeVYWsUZbSl7__LR2-13" style="edgeStyle=none;rounded=0;orthogonalLoop=1;jettySize=auto;html=1;exitX=0;exitY=1;exitDx=0;exitDy=0;entryX=1;entryY=0;entryDx=0;entryDy=0;fontSize=17;" edge="1" parent="1" source="pwTNeVYWsUZbSl7__LR2-15" target="pwTNeVYWsUZbSl7__LR2-23">
          <mxGeometry relative="1" as="geometry" />
        </mxCell>
        <mxCell id="pwTNeVYWsUZbSl7__LR2-14" value="01" style="edgeLabel;html=1;align=center;verticalAlign=middle;resizable=0;points=[];fontSize=17;" vertex="1" connectable="0" parent="pwTNeVYWsUZbSl7__LR2-13">
          <mxGeometry x="-0.1312" relative="1" as="geometry">
            <mxPoint x="-17" y="-7" as="offset" />
          </mxGeometry>
        </mxCell>
        <mxCell id="pwTNeVYWsUZbSl7__LR2-15" value="" style="ellipse;whiteSpace=wrap;html=1;aspect=fixed;fontSize=17;" vertex="1" parent="1">
          <mxGeometry x="350" y="250" width="50" height="50" as="geometry" />
        </mxCell>
        <mxCell id="pwTNeVYWsUZbSl7__LR2-16" value="5:c" style="ellipse;whiteSpace=wrap;html=1;aspect=fixed;fontSize=17;" vertex="1" parent="1">
          <mxGeometry x="420" y="310" width="50" height="50" as="geometry" />
        </mxCell>
        <mxCell id="pwTNeVYWsUZbSl7__LR2-23" value="9:d" style="ellipse;whiteSpace=wrap;html=1;aspect=fixed;fontSize=17;" vertex="1" parent="1">
          <mxGeometry x="290" y="310" width="50" height="50" as="geometry" />
        </mxCell>
      </root>
    </mxGraphModel>
  </diagram>
  <diagram id="bcpDPcjLU17Efk7BsWrm" name="int tree insert b">
    <mxGraphModel dx="1159" dy="784" grid="1" gridSize="10" guides="1" tooltips="1" connect="1" arrows="1" fold="1" page="1" pageScale="1" pageWidth="850" pageHeight="1100" math="0" shadow="0">
      <root>
        <mxCell id="0" />
        <mxCell id="1" parent="0" />
        <mxCell id="3xS6fyH-VFhKFM73wYQs-1" value="12" style="ellipse;whiteSpace=wrap;html=1;aspect=fixed;fontSize=17;" vertex="1" parent="1">
          <mxGeometry x="130" y="245" width="50" height="50" as="geometry" />
        </mxCell>
        <mxCell id="3xS6fyH-VFhKFM73wYQs-2" value="12" style="ellipse;whiteSpace=wrap;html=1;aspect=fixed;fontSize=17;" vertex="1" parent="1">
          <mxGeometry x="270" y="360" width="50" height="50" as="geometry" />
        </mxCell>
        <mxCell id="3xS6fyH-VFhKFM73wYQs-3" value="15" style="ellipse;whiteSpace=wrap;html=1;aspect=fixed;fontSize=17;" vertex="1" parent="1">
          <mxGeometry x="440" y="360" width="50" height="50" as="geometry" />
        </mxCell>
        <mxCell id="3xS6fyH-VFhKFM73wYQs-5" style="edgeStyle=none;rounded=0;orthogonalLoop=1;jettySize=auto;html=1;exitX=1;exitY=1;exitDx=0;exitDy=0;entryX=0.5;entryY=0;entryDx=0;entryDy=0;fontSize=17;" edge="1" parent="1" source="3xS6fyH-VFhKFM73wYQs-4" target="3xS6fyH-VFhKFM73wYQs-3">
          <mxGeometry relative="1" as="geometry" />
        </mxCell>
        <mxCell id="3xS6fyH-VFhKFM73wYQs-8" value="1" style="edgeLabel;html=1;align=center;verticalAlign=middle;resizable=0;points=[];fontSize=17;" vertex="1" connectable="0" parent="3xS6fyH-VFhKFM73wYQs-5">
          <mxGeometry x="-0.2668" y="-4" relative="1" as="geometry">
            <mxPoint x="-9" y="7" as="offset" />
          </mxGeometry>
        </mxCell>
        <mxCell id="3xS6fyH-VFhKFM73wYQs-6" style="edgeStyle=none;rounded=0;orthogonalLoop=1;jettySize=auto;html=1;exitX=0;exitY=1;exitDx=0;exitDy=0;fontSize=17;" edge="1" parent="1" source="3xS6fyH-VFhKFM73wYQs-4" target="3xS6fyH-VFhKFM73wYQs-2">
          <mxGeometry relative="1" as="geometry" />
        </mxCell>
        <mxCell id="3xS6fyH-VFhKFM73wYQs-7" value="0" style="edgeLabel;html=1;align=center;verticalAlign=middle;resizable=0;points=[];fontSize=17;" vertex="1" connectable="0" parent="3xS6fyH-VFhKFM73wYQs-6">
          <mxGeometry x="-0.0751" y="2" relative="1" as="geometry">
            <mxPoint x="15" y="1" as="offset" />
          </mxGeometry>
        </mxCell>
        <mxCell id="3xS6fyH-VFhKFM73wYQs-4" value="prefix = 1100&lt;br&gt;mask = 100" style="ellipse;whiteSpace=wrap;html=1;fontSize=17;" vertex="1" parent="1">
          <mxGeometry x="320" y="230" width="120" height="80" as="geometry" />
        </mxCell>
      </root>
    </mxGraphModel>
  </diagram>
  <diagram name="int tree insert c" id="YAkQW5hK5IjG9piqmeyO">
    <mxGraphModel dx="1159" dy="784" grid="1" gridSize="10" guides="1" tooltips="1" connect="1" arrows="1" fold="1" page="1" pageScale="1" pageWidth="850" pageHeight="1100" math="0" shadow="0">
      <root>
        <mxCell id="LAVCd5yEWqI_gLh6D5AU-0" />
        <mxCell id="LAVCd5yEWqI_gLh6D5AU-1" parent="LAVCd5yEWqI_gLh6D5AU-0" />
        <mxCell id="LAVCd5yEWqI_gLh6D5AU-3" value="12" style="ellipse;whiteSpace=wrap;html=1;aspect=fixed;fontSize=17;" vertex="1" parent="LAVCd5yEWqI_gLh6D5AU-1">
          <mxGeometry x="310" y="360" width="50" height="50" as="geometry" />
        </mxCell>
        <mxCell id="LAVCd5yEWqI_gLh6D5AU-4" value="15" style="ellipse;whiteSpace=wrap;html=1;aspect=fixed;fontSize=17;" vertex="1" parent="LAVCd5yEWqI_gLh6D5AU-1">
          <mxGeometry x="530" y="480" width="50" height="50" as="geometry" />
        </mxCell>
        <mxCell id="LAVCd5yEWqI_gLh6D5AU-5" style="edgeStyle=none;rounded=0;orthogonalLoop=1;jettySize=auto;html=1;exitX=1;exitY=1;exitDx=0;exitDy=0;fontSize=17;entryX=0.5;entryY=0;entryDx=0;entryDy=0;" edge="1" parent="LAVCd5yEWqI_gLh6D5AU-1" source="LAVCd5yEWqI_gLh6D5AU-9" target="rANospwP_ExgYaGy01tb-0">
          <mxGeometry relative="1" as="geometry">
            <mxPoint x="510" y="350" as="targetPoint" />
          </mxGeometry>
        </mxCell>
        <mxCell id="LAVCd5yEWqI_gLh6D5AU-6" value="1" style="edgeLabel;html=1;align=center;verticalAlign=middle;resizable=0;points=[];fontSize=17;" vertex="1" connectable="0" parent="LAVCd5yEWqI_gLh6D5AU-5">
          <mxGeometry x="-0.2668" y="-4" relative="1" as="geometry">
            <mxPoint x="-9" y="7" as="offset" />
          </mxGeometry>
        </mxCell>
        <mxCell id="LAVCd5yEWqI_gLh6D5AU-7" style="edgeStyle=none;rounded=0;orthogonalLoop=1;jettySize=auto;html=1;exitX=0;exitY=1;exitDx=0;exitDy=0;fontSize=17;" edge="1" parent="LAVCd5yEWqI_gLh6D5AU-1" source="LAVCd5yEWqI_gLh6D5AU-9" target="LAVCd5yEWqI_gLh6D5AU-3">
          <mxGeometry relative="1" as="geometry" />
        </mxCell>
        <mxCell id="LAVCd5yEWqI_gLh6D5AU-8" value="0" style="edgeLabel;html=1;align=center;verticalAlign=middle;resizable=0;points=[];fontSize=17;" vertex="1" connectable="0" parent="LAVCd5yEWqI_gLh6D5AU-7">
          <mxGeometry x="-0.0751" y="2" relative="1" as="geometry">
            <mxPoint x="15" y="1" as="offset" />
          </mxGeometry>
        </mxCell>
        <mxCell id="LAVCd5yEWqI_gLh6D5AU-9" value="prefix = 1100&lt;br&gt;mask = 100" style="ellipse;whiteSpace=wrap;html=1;fontSize=17;" vertex="1" parent="LAVCd5yEWqI_gLh6D5AU-1">
          <mxGeometry x="360" y="230" width="120" height="80" as="geometry" />
        </mxCell>
        <mxCell id="rANospwP_ExgYaGy01tb-1" value="1" style="edgeStyle=none;rounded=0;orthogonalLoop=1;jettySize=auto;html=1;exitX=1;exitY=1;exitDx=0;exitDy=0;entryX=0.5;entryY=0;entryDx=0;entryDy=0;fontSize=17;" edge="1" parent="LAVCd5yEWqI_gLh6D5AU-1" source="rANospwP_ExgYaGy01tb-0" target="LAVCd5yEWqI_gLh6D5AU-4">
          <mxGeometry x="-0.0042" y="-15" relative="1" as="geometry">
            <mxPoint as="offset" />
          </mxGeometry>
        </mxCell>
        <mxCell id="rANospwP_ExgYaGy01tb-3" style="edgeStyle=none;rounded=0;orthogonalLoop=1;jettySize=auto;html=1;exitX=0;exitY=1;exitDx=0;exitDy=0;entryX=0.5;entryY=0;entryDx=0;entryDy=0;fontSize=17;" edge="1" parent="LAVCd5yEWqI_gLh6D5AU-1" source="rANospwP_ExgYaGy01tb-0" target="rANospwP_ExgYaGy01tb-2">
          <mxGeometry relative="1" as="geometry" />
        </mxCell>
        <mxCell id="rANospwP_ExgYaGy01tb-4" value="0" style="edgeLabel;html=1;align=center;verticalAlign=middle;resizable=0;points=[];fontSize=17;" vertex="1" connectable="0" parent="rANospwP_ExgYaGy01tb-3">
          <mxGeometry x="0.0803" y="3" relative="1" as="geometry">
            <mxPoint x="16" as="offset" />
          </mxGeometry>
        </mxCell>
        <mxCell id="rANospwP_ExgYaGy01tb-0" value="prefix = 1110&lt;br&gt;mask = 10" style="ellipse;whiteSpace=wrap;html=1;fontSize=17;" vertex="1" parent="LAVCd5yEWqI_gLh6D5AU-1">
          <mxGeometry x="430" y="360" width="120" height="80" as="geometry" />
        </mxCell>
        <mxCell id="rANospwP_ExgYaGy01tb-2" value="14" style="ellipse;whiteSpace=wrap;html=1;aspect=fixed;fontSize=17;" vertex="1" parent="LAVCd5yEWqI_gLh6D5AU-1">
          <mxGeometry x="410" y="480" width="50" height="50" as="geometry" />
        </mxCell>
        <mxCell id="CgHVQEkHcsIxBJdm1in0-0" value="12" style="ellipse;whiteSpace=wrap;html=1;aspect=fixed;fontSize=17;" vertex="1" parent="LAVCd5yEWqI_gLh6D5AU-1">
          <mxGeometry x="40" y="360" width="50" height="50" as="geometry" />
        </mxCell>
        <mxCell id="CgHVQEkHcsIxBJdm1in0-1" value="15" style="ellipse;whiteSpace=wrap;html=1;aspect=fixed;fontSize=17;" vertex="1" parent="LAVCd5yEWqI_gLh6D5AU-1">
          <mxGeometry x="210" y="360" width="50" height="50" as="geometry" />
        </mxCell>
        <mxCell id="CgHVQEkHcsIxBJdm1in0-2" style="edgeStyle=none;rounded=0;orthogonalLoop=1;jettySize=auto;html=1;exitX=1;exitY=1;exitDx=0;exitDy=0;entryX=0.5;entryY=0;entryDx=0;entryDy=0;fontSize=17;" edge="1" parent="LAVCd5yEWqI_gLh6D5AU-1" source="CgHVQEkHcsIxBJdm1in0-6" target="CgHVQEkHcsIxBJdm1in0-1">
          <mxGeometry relative="1" as="geometry" />
        </mxCell>
        <mxCell id="CgHVQEkHcsIxBJdm1in0-3" value="1" style="edgeLabel;html=1;align=center;verticalAlign=middle;resizable=0;points=[];fontSize=17;" vertex="1" connectable="0" parent="CgHVQEkHcsIxBJdm1in0-2">
          <mxGeometry x="-0.2668" y="-4" relative="1" as="geometry">
            <mxPoint x="-9" y="7" as="offset" />
          </mxGeometry>
        </mxCell>
        <mxCell id="CgHVQEkHcsIxBJdm1in0-4" style="edgeStyle=none;rounded=0;orthogonalLoop=1;jettySize=auto;html=1;exitX=0;exitY=1;exitDx=0;exitDy=0;fontSize=17;" edge="1" parent="LAVCd5yEWqI_gLh6D5AU-1" source="CgHVQEkHcsIxBJdm1in0-6" target="CgHVQEkHcsIxBJdm1in0-0">
          <mxGeometry relative="1" as="geometry" />
        </mxCell>
        <mxCell id="CgHVQEkHcsIxBJdm1in0-5" value="0" style="edgeLabel;html=1;align=center;verticalAlign=middle;resizable=0;points=[];fontSize=17;" vertex="1" connectable="0" parent="CgHVQEkHcsIxBJdm1in0-4">
          <mxGeometry x="-0.0751" y="2" relative="1" as="geometry">
            <mxPoint x="15" y="1" as="offset" />
          </mxGeometry>
        </mxCell>
        <mxCell id="CgHVQEkHcsIxBJdm1in0-6" value="prefix = 1100&lt;br&gt;mask = 100" style="ellipse;whiteSpace=wrap;html=1;fontSize=17;" vertex="1" parent="LAVCd5yEWqI_gLh6D5AU-1">
          <mxGeometry x="90" y="230" width="120" height="80" as="geometry" />
        </mxCell>
      </root>
    </mxGraphModel>
  </diagram>
  <diagram name="int tree insert d" id="A4ESqNsZPiCXE7X345K0">
    <mxGraphModel dx="1026" dy="743" grid="1" gridSize="10" guides="1" tooltips="1" connect="1" arrows="1" fold="1" page="1" pageScale="1" pageWidth="850" pageHeight="1100" math="0" shadow="0">
      <root>
        <mxCell id="YQzdymF0zJl3iwr7sd5U-0" />
        <mxCell id="YQzdymF0zJl3iwr7sd5U-1" parent="YQzdymF0zJl3iwr7sd5U-0" />
        <mxCell id="YQzdymF0zJl3iwr7sd5U-2" value="5" style="ellipse;whiteSpace=wrap;html=1;aspect=fixed;fontSize=17;" parent="YQzdymF0zJl3iwr7sd5U-1" vertex="1">
          <mxGeometry x="310" y="360" width="50" height="50" as="geometry" />
        </mxCell>
        <mxCell id="YQzdymF0zJl3iwr7sd5U-3" value="15" style="ellipse;whiteSpace=wrap;html=1;aspect=fixed;fontSize=17;" parent="YQzdymF0zJl3iwr7sd5U-1" vertex="1">
          <mxGeometry x="530" y="480" width="50" height="50" as="geometry" />
        </mxCell>
        <mxCell id="YQzdymF0zJl3iwr7sd5U-4" style="edgeStyle=none;rounded=0;orthogonalLoop=1;jettySize=auto;html=1;exitX=1;exitY=1;exitDx=0;exitDy=0;fontSize=17;entryX=0.5;entryY=0;entryDx=0;entryDy=0;" parent="YQzdymF0zJl3iwr7sd5U-1" source="YQzdymF0zJl3iwr7sd5U-8" target="YQzdymF0zJl3iwr7sd5U-12" edge="1">
          <mxGeometry relative="1" as="geometry">
            <mxPoint x="510" y="350" as="targetPoint" />
          </mxGeometry>
        </mxCell>
        <mxCell id="YQzdymF0zJl3iwr7sd5U-5" value="1" style="edgeLabel;html=1;align=center;verticalAlign=middle;resizable=0;points=[];fontSize=17;" parent="YQzdymF0zJl3iwr7sd5U-4" vertex="1" connectable="0">
          <mxGeometry x="-0.2668" y="-4" relative="1" as="geometry">
            <mxPoint x="-9" y="7" as="offset" />
          </mxGeometry>
        </mxCell>
        <mxCell id="YQzdymF0zJl3iwr7sd5U-6" style="edgeStyle=none;rounded=0;orthogonalLoop=1;jettySize=auto;html=1;exitX=0;exitY=1;exitDx=0;exitDy=0;fontSize=17;" parent="YQzdymF0zJl3iwr7sd5U-1" source="YQzdymF0zJl3iwr7sd5U-8" target="YQzdymF0zJl3iwr7sd5U-2" edge="1">
          <mxGeometry relative="1" as="geometry" />
        </mxCell>
        <mxCell id="YQzdymF0zJl3iwr7sd5U-7" value="0" style="edgeLabel;html=1;align=center;verticalAlign=middle;resizable=0;points=[];fontSize=17;" parent="YQzdymF0zJl3iwr7sd5U-6" vertex="1" connectable="0">
          <mxGeometry x="-0.0751" y="2" relative="1" as="geometry">
            <mxPoint x="15" y="1" as="offset" />
          </mxGeometry>
        </mxCell>
        <mxCell id="YQzdymF0zJl3iwr7sd5U-8" value="prefix = 0&lt;br&gt;mask = 10000" style="ellipse;whiteSpace=wrap;html=1;fontSize=17;" parent="YQzdymF0zJl3iwr7sd5U-1" vertex="1">
          <mxGeometry x="360" y="230" width="120" height="80" as="geometry" />
        </mxCell>
        <mxCell id="YQzdymF0zJl3iwr7sd5U-9" value="1" style="edgeStyle=none;rounded=0;orthogonalLoop=1;jettySize=auto;html=1;exitX=1;exitY=1;exitDx=0;exitDy=0;entryX=0.5;entryY=0;entryDx=0;entryDy=0;fontSize=17;" parent="YQzdymF0zJl3iwr7sd5U-1" source="YQzdymF0zJl3iwr7sd5U-12" target="YQzdymF0zJl3iwr7sd5U-3" edge="1">
          <mxGeometry x="-0.0042" y="-15" relative="1" as="geometry">
            <mxPoint as="offset" />
          </mxGeometry>
        </mxCell>
        <mxCell id="YQzdymF0zJl3iwr7sd5U-10" style="edgeStyle=none;rounded=0;orthogonalLoop=1;jettySize=auto;html=1;exitX=0;exitY=1;exitDx=0;exitDy=0;entryX=0.5;entryY=0;entryDx=0;entryDy=0;fontSize=17;" parent="YQzdymF0zJl3iwr7sd5U-1" source="YQzdymF0zJl3iwr7sd5U-12" target="YQzdymF0zJl3iwr7sd5U-13" edge="1">
          <mxGeometry relative="1" as="geometry" />
        </mxCell>
        <mxCell id="YQzdymF0zJl3iwr7sd5U-11" value="0" style="edgeLabel;html=1;align=center;verticalAlign=middle;resizable=0;points=[];fontSize=17;" parent="YQzdymF0zJl3iwr7sd5U-10" vertex="1" connectable="0">
          <mxGeometry x="0.0803" y="3" relative="1" as="geometry">
            <mxPoint x="16" as="offset" />
          </mxGeometry>
        </mxCell>
        <mxCell id="YQzdymF0zJl3iwr7sd5U-12" value="prefix = 1100&lt;br&gt;mask = 100" style="ellipse;whiteSpace=wrap;html=1;fontSize=17;" parent="YQzdymF0zJl3iwr7sd5U-1" vertex="1">
          <mxGeometry x="430" y="360" width="120" height="80" as="geometry" />
        </mxCell>
        <mxCell id="YQzdymF0zJl3iwr7sd5U-13" value="12" style="ellipse;whiteSpace=wrap;html=1;aspect=fixed;fontSize=17;" parent="YQzdymF0zJl3iwr7sd5U-1" vertex="1">
          <mxGeometry x="410" y="480" width="50" height="50" as="geometry" />
        </mxCell>
        <mxCell id="YQzdymF0zJl3iwr7sd5U-14" value="12" style="ellipse;whiteSpace=wrap;html=1;aspect=fixed;fontSize=17;" parent="YQzdymF0zJl3iwr7sd5U-1" vertex="1">
          <mxGeometry x="40" y="360" width="50" height="50" as="geometry" />
        </mxCell>
        <mxCell id="YQzdymF0zJl3iwr7sd5U-15" value="15" style="ellipse;whiteSpace=wrap;html=1;aspect=fixed;fontSize=17;" parent="YQzdymF0zJl3iwr7sd5U-1" vertex="1">
          <mxGeometry x="210" y="360" width="50" height="50" as="geometry" />
        </mxCell>
        <mxCell id="YQzdymF0zJl3iwr7sd5U-16" style="edgeStyle=none;rounded=0;orthogonalLoop=1;jettySize=auto;html=1;exitX=1;exitY=1;exitDx=0;exitDy=0;entryX=0.5;entryY=0;entryDx=0;entryDy=0;fontSize=17;" parent="YQzdymF0zJl3iwr7sd5U-1" source="YQzdymF0zJl3iwr7sd5U-20" target="YQzdymF0zJl3iwr7sd5U-15" edge="1">
          <mxGeometry relative="1" as="geometry" />
        </mxCell>
        <mxCell id="YQzdymF0zJl3iwr7sd5U-17" value="1" style="edgeLabel;html=1;align=center;verticalAlign=middle;resizable=0;points=[];fontSize=17;" parent="YQzdymF0zJl3iwr7sd5U-16" vertex="1" connectable="0">
          <mxGeometry x="-0.2668" y="-4" relative="1" as="geometry">
            <mxPoint x="-9" y="7" as="offset" />
          </mxGeometry>
        </mxCell>
        <mxCell id="YQzdymF0zJl3iwr7sd5U-18" style="edgeStyle=none;rounded=0;orthogonalLoop=1;jettySize=auto;html=1;exitX=0;exitY=1;exitDx=0;exitDy=0;fontSize=17;" parent="YQzdymF0zJl3iwr7sd5U-1" source="YQzdymF0zJl3iwr7sd5U-20" target="YQzdymF0zJl3iwr7sd5U-14" edge="1">
          <mxGeometry relative="1" as="geometry" />
        </mxCell>
        <mxCell id="YQzdymF0zJl3iwr7sd5U-19" value="0" style="edgeLabel;html=1;align=center;verticalAlign=middle;resizable=0;points=[];fontSize=17;" parent="YQzdymF0zJl3iwr7sd5U-18" vertex="1" connectable="0">
          <mxGeometry x="-0.0751" y="2" relative="1" as="geometry">
            <mxPoint x="15" y="1" as="offset" />
          </mxGeometry>
        </mxCell>
        <mxCell id="YQzdymF0zJl3iwr7sd5U-20" value="prefix = 1100&lt;br&gt;mask = 100" style="ellipse;whiteSpace=wrap;html=1;fontSize=17;" parent="YQzdymF0zJl3iwr7sd5U-1" vertex="1">
          <mxGeometry x="90" y="230" width="120" height="80" as="geometry" />
        </mxCell>
      </root>
    </mxGraphModel>
  </diagram>
  <diagram id="YN-jsKBUbNI-Io53Dchc" name="big endian int tree">
    <mxGraphModel dx="1159" dy="784" grid="1" gridSize="10" guides="1" tooltips="1" connect="1" arrows="1" fold="1" page="1" pageScale="1" pageWidth="850" pageHeight="1100" math="1" shadow="0">
      <root>
        <mxCell id="0" />
        <mxCell id="1" parent="0" />
        <mxCell id="JJpLA6R_lNoYRrrNnaEc-1" value="1:`x`" style="ellipse;whiteSpace=wrap;html=1;aspect=fixed;fontSize=17;" vertex="1" parent="1">
          <mxGeometry x="310" y="360" width="50" height="50" as="geometry" />
        </mxCell>
        <mxCell id="JJpLA6R_lNoYRrrNnaEc-2" value="5:`z`" style="ellipse;whiteSpace=wrap;html=1;aspect=fixed;fontSize=17;" vertex="1" parent="1">
          <mxGeometry x="530" y="480" width="50" height="50" as="geometry" />
        </mxCell>
        <mxCell id="JJpLA6R_lNoYRrrNnaEc-3" style="edgeStyle=none;rounded=0;orthogonalLoop=1;jettySize=auto;html=1;exitX=1;exitY=1;exitDx=0;exitDy=0;fontSize=17;entryX=0.5;entryY=0;entryDx=0;entryDy=0;" edge="1" parent="1" source="JJpLA6R_lNoYRrrNnaEc-7" target="JJpLA6R_lNoYRrrNnaEc-11">
          <mxGeometry relative="1" as="geometry">
            <mxPoint x="510" y="350" as="targetPoint" />
          </mxGeometry>
        </mxCell>
        <mxCell id="JJpLA6R_lNoYRrrNnaEc-4" value="1" style="edgeLabel;html=1;align=center;verticalAlign=middle;resizable=0;points=[];fontSize=17;" vertex="1" connectable="0" parent="JJpLA6R_lNoYRrrNnaEc-3">
          <mxGeometry x="-0.2668" y="-4" relative="1" as="geometry">
            <mxPoint x="-9" y="7" as="offset" />
          </mxGeometry>
        </mxCell>
        <mxCell id="JJpLA6R_lNoYRrrNnaEc-5" style="edgeStyle=none;rounded=0;orthogonalLoop=1;jettySize=auto;html=1;exitX=0;exitY=1;exitDx=0;exitDy=0;fontSize=17;" edge="1" parent="1" source="JJpLA6R_lNoYRrrNnaEc-7" target="JJpLA6R_lNoYRrrNnaEc-1">
          <mxGeometry relative="1" as="geometry" />
        </mxCell>
        <mxCell id="JJpLA6R_lNoYRrrNnaEc-6" value="0" style="edgeLabel;html=1;align=center;verticalAlign=middle;resizable=0;points=[];fontSize=17;" vertex="1" connectable="0" parent="JJpLA6R_lNoYRrrNnaEc-5">
          <mxGeometry x="-0.0751" y="2" relative="1" as="geometry">
            <mxPoint x="15" y="1" as="offset" />
          </mxGeometry>
        </mxCell>
        <mxCell id="JJpLA6R_lNoYRrrNnaEc-7" value="prefix = 0&lt;br&gt;mask = 8" style="ellipse;whiteSpace=wrap;html=1;fontSize=17;" vertex="1" parent="1">
          <mxGeometry x="360" y="230" width="120" height="80" as="geometry" />
        </mxCell>
        <mxCell id="JJpLA6R_lNoYRrrNnaEc-8" value="1" style="edgeStyle=none;rounded=0;orthogonalLoop=1;jettySize=auto;html=1;exitX=1;exitY=1;exitDx=0;exitDy=0;entryX=0.5;entryY=0;entryDx=0;entryDy=0;fontSize=17;" edge="1" parent="1" source="JJpLA6R_lNoYRrrNnaEc-11" target="JJpLA6R_lNoYRrrNnaEc-2">
          <mxGeometry x="-0.0042" y="-15" relative="1" as="geometry">
            <mxPoint as="offset" />
          </mxGeometry>
        </mxCell>
        <mxCell id="JJpLA6R_lNoYRrrNnaEc-9" style="edgeStyle=none;rounded=0;orthogonalLoop=1;jettySize=auto;html=1;exitX=0;exitY=1;exitDx=0;exitDy=0;entryX=0.5;entryY=0;entryDx=0;entryDy=0;fontSize=17;" edge="1" parent="1" source="JJpLA6R_lNoYRrrNnaEc-11" target="JJpLA6R_lNoYRrrNnaEc-12">
          <mxGeometry relative="1" as="geometry" />
        </mxCell>
        <mxCell id="JJpLA6R_lNoYRrrNnaEc-10" value="0" style="edgeLabel;html=1;align=center;verticalAlign=middle;resizable=0;points=[];fontSize=17;" vertex="1" connectable="0" parent="JJpLA6R_lNoYRrrNnaEc-9">
          <mxGeometry x="0.0803" y="3" relative="1" as="geometry">
            <mxPoint x="16" as="offset" />
          </mxGeometry>
        </mxCell>
        <mxCell id="JJpLA6R_lNoYRrrNnaEc-11" value="prefix = 100&lt;br&gt;mask = 2" style="ellipse;whiteSpace=wrap;html=1;fontSize=17;" vertex="1" parent="1">
          <mxGeometry x="430" y="360" width="120" height="80" as="geometry" />
        </mxCell>
        <mxCell id="JJpLA6R_lNoYRrrNnaEc-12" value="4:`y`" style="ellipse;whiteSpace=wrap;html=1;aspect=fixed;fontSize=17;" vertex="1" parent="1">
          <mxGeometry x="410" y="480" width="50" height="50" as="geometry" />
        </mxCell>
      </root>
    </mxGraphModel>
  </diagram>
  <diagram id="orIBi2uE0UEBMS12ikXV" name="trie of 26">
    <mxGraphModel dx="1159" dy="784" grid="1" gridSize="10" guides="1" tooltips="1" connect="1" arrows="1" fold="1" page="1" pageScale="1" pageWidth="850" pageHeight="1100" math="1" shadow="0">
      <root>
        <mxCell id="0" />
        <mxCell id="1" parent="0" />
        <mxCell id="mSaTmp_OGd0m0QkSYPxG-6" style="edgeStyle=none;rounded=0;orthogonalLoop=1;jettySize=auto;html=1;exitX=0;exitY=1;exitDx=0;exitDy=0;entryX=1;entryY=0;entryDx=0;entryDy=0;fontSize=17;" edge="1" parent="1" source="mSaTmp_OGd0m0QkSYPxG-1" target="mSaTmp_OGd0m0QkSYPxG-2">
          <mxGeometry relative="1" as="geometry" />
        </mxCell>
        <mxCell id="mSaTmp_OGd0m0QkSYPxG-12" value="a" style="edgeLabel;html=1;align=center;verticalAlign=middle;resizable=0;points=[];fontSize=17;" vertex="1" connectable="0" parent="mSaTmp_OGd0m0QkSYPxG-6">
          <mxGeometry x="0.1058" y="-1" relative="1" as="geometry">
            <mxPoint y="-12" as="offset" />
          </mxGeometry>
        </mxCell>
        <mxCell id="mSaTmp_OGd0m0QkSYPxG-7" style="edgeStyle=none;rounded=0;orthogonalLoop=1;jettySize=auto;html=1;exitX=1;exitY=1;exitDx=0;exitDy=0;entryX=0;entryY=0;entryDx=0;entryDy=0;fontSize=17;" edge="1" parent="1" source="mSaTmp_OGd0m0QkSYPxG-1" target="mSaTmp_OGd0m0QkSYPxG-4">
          <mxGeometry relative="1" as="geometry" />
        </mxCell>
        <mxCell id="mSaTmp_OGd0m0QkSYPxG-15" value="z" style="edgeLabel;html=1;align=center;verticalAlign=middle;resizable=0;points=[];fontSize=17;" vertex="1" connectable="0" parent="mSaTmp_OGd0m0QkSYPxG-7">
          <mxGeometry x="-0.0092" y="1" relative="1" as="geometry">
            <mxPoint x="10" y="-9" as="offset" />
          </mxGeometry>
        </mxCell>
        <mxCell id="mSaTmp_OGd0m0QkSYPxG-10" style="edgeStyle=none;rounded=0;orthogonalLoop=1;jettySize=auto;html=1;exitX=0.5;exitY=1;exitDx=0;exitDy=0;entryX=0.5;entryY=0;entryDx=0;entryDy=0;fontSize=17;" edge="1" parent="1" source="mSaTmp_OGd0m0QkSYPxG-1" target="mSaTmp_OGd0m0QkSYPxG-9">
          <mxGeometry relative="1" as="geometry" />
        </mxCell>
        <mxCell id="mSaTmp_OGd0m0QkSYPxG-14" value="c" style="edgeLabel;html=1;align=center;verticalAlign=middle;resizable=0;points=[];fontSize=17;" vertex="1" connectable="0" parent="mSaTmp_OGd0m0QkSYPxG-10">
          <mxGeometry x="-0.2077" y="-1" relative="1" as="geometry">
            <mxPoint x="22" as="offset" />
          </mxGeometry>
        </mxCell>
        <mxCell id="mSaTmp_OGd0m0QkSYPxG-11" style="edgeStyle=none;rounded=0;orthogonalLoop=1;jettySize=auto;html=1;exitX=0;exitY=1;exitDx=0;exitDy=0;entryX=0.5;entryY=0;entryDx=0;entryDy=0;fontSize=17;" edge="1" parent="1" source="mSaTmp_OGd0m0QkSYPxG-1" target="mSaTmp_OGd0m0QkSYPxG-3">
          <mxGeometry relative="1" as="geometry" />
        </mxCell>
        <mxCell id="mSaTmp_OGd0m0QkSYPxG-13" value="b" style="edgeLabel;html=1;align=center;verticalAlign=middle;resizable=0;points=[];fontSize=17;" vertex="1" connectable="0" parent="mSaTmp_OGd0m0QkSYPxG-11">
          <mxGeometry x="0.2623" y="-1" relative="1" as="geometry">
            <mxPoint x="20" as="offset" />
          </mxGeometry>
        </mxCell>
        <mxCell id="mSaTmp_OGd0m0QkSYPxG-1" value="" style="ellipse;whiteSpace=wrap;html=1;aspect=fixed;fontSize=17;" vertex="1" parent="1">
          <mxGeometry x="410" y="110" width="50" height="50" as="geometry" />
        </mxCell>
        <mxCell id="mSaTmp_OGd0m0QkSYPxG-19" style="edgeStyle=none;rounded=0;orthogonalLoop=1;jettySize=auto;html=1;exitX=0.5;exitY=1;exitDx=0;exitDy=0;fontSize=17;" edge="1" parent="1" source="mSaTmp_OGd0m0QkSYPxG-2" target="mSaTmp_OGd0m0QkSYPxG-16">
          <mxGeometry relative="1" as="geometry" />
        </mxCell>
        <mxCell id="mSaTmp_OGd0m0QkSYPxG-20" value="n" style="edgeLabel;html=1;align=center;verticalAlign=middle;resizable=0;points=[];fontSize=17;" vertex="1" connectable="0" parent="mSaTmp_OGd0m0QkSYPxG-19">
          <mxGeometry y="-1" relative="1" as="geometry">
            <mxPoint x="-14" as="offset" />
          </mxGeometry>
        </mxCell>
        <mxCell id="mSaTmp_OGd0m0QkSYPxG-2" value="a" style="ellipse;whiteSpace=wrap;html=1;aspect=fixed;fontSize=17;" vertex="1" parent="1">
          <mxGeometry x="270" y="200" width="50" height="50" as="geometry" />
        </mxCell>
        <mxCell id="mSaTmp_OGd0m0QkSYPxG-21" style="edgeStyle=none;rounded=0;orthogonalLoop=1;jettySize=auto;html=1;exitX=0.5;exitY=1;exitDx=0;exitDy=0;entryX=0.5;entryY=0;entryDx=0;entryDy=0;fontSize=17;" edge="1" parent="1" source="mSaTmp_OGd0m0QkSYPxG-3" target="mSaTmp_OGd0m0QkSYPxG-17">
          <mxGeometry relative="1" as="geometry" />
        </mxCell>
        <mxCell id="mSaTmp_OGd0m0QkSYPxG-22" value="o" style="edgeLabel;html=1;align=center;verticalAlign=middle;resizable=0;points=[];fontSize=17;" vertex="1" connectable="0" parent="mSaTmp_OGd0m0QkSYPxG-21">
          <mxGeometry x="-0.4" y="-1" relative="1" as="geometry">
            <mxPoint x="16" y="1" as="offset" />
          </mxGeometry>
        </mxCell>
        <mxCell id="mSaTmp_OGd0m0QkSYPxG-3" value="" style="ellipse;whiteSpace=wrap;html=1;aspect=fixed;fontSize=17;" vertex="1" parent="1">
          <mxGeometry x="350" y="200" width="50" height="50" as="geometry" />
        </mxCell>
        <mxCell id="mSaTmp_OGd0m0QkSYPxG-23" style="edgeStyle=none;rounded=0;orthogonalLoop=1;jettySize=auto;html=1;exitX=0.5;exitY=1;exitDx=0;exitDy=0;entryX=0.5;entryY=0;entryDx=0;entryDy=0;fontSize=17;" edge="1" parent="1" source="mSaTmp_OGd0m0QkSYPxG-4" target="mSaTmp_OGd0m0QkSYPxG-18">
          <mxGeometry relative="1" as="geometry" />
        </mxCell>
        <mxCell id="mSaTmp_OGd0m0QkSYPxG-24" value="o" style="edgeLabel;html=1;align=center;verticalAlign=middle;resizable=0;points=[];fontSize=17;" vertex="1" connectable="0" parent="mSaTmp_OGd0m0QkSYPxG-23">
          <mxGeometry x="-0.1333" relative="1" as="geometry">
            <mxPoint x="15" as="offset" />
          </mxGeometry>
        </mxCell>
        <mxCell id="mSaTmp_OGd0m0QkSYPxG-4" value="" style="ellipse;whiteSpace=wrap;html=1;aspect=fixed;fontSize=17;" vertex="1" parent="1">
          <mxGeometry x="540" y="200" width="50" height="50" as="geometry" />
        </mxCell>
        <mxCell id="mSaTmp_OGd0m0QkSYPxG-5" value="..." style="text;html=1;strokeColor=none;fillColor=none;align=center;verticalAlign=middle;whiteSpace=wrap;rounded=0;fontSize=17;" vertex="1" parent="1">
          <mxGeometry x="480" y="210" width="40" height="30" as="geometry" />
        </mxCell>
        <mxCell id="mSaTmp_OGd0m0QkSYPxG-8" style="edgeStyle=none;rounded=0;orthogonalLoop=1;jettySize=auto;html=1;exitX=0;exitY=0.5;exitDx=0;exitDy=0;fontSize=17;" edge="1" parent="1" source="mSaTmp_OGd0m0QkSYPxG-5" target="mSaTmp_OGd0m0QkSYPxG-5">
          <mxGeometry relative="1" as="geometry" />
        </mxCell>
        <mxCell id="mSaTmp_OGd0m0QkSYPxG-9" value="NIL" style="text;html=1;strokeColor=none;fillColor=none;align=center;verticalAlign=middle;whiteSpace=wrap;rounded=0;fontSize=17;" vertex="1" parent="1">
          <mxGeometry x="425" y="210" width="40" height="30" as="geometry" />
        </mxCell>
        <mxCell id="mSaTmp_OGd0m0QkSYPxG-26" style="edgeStyle=none;rounded=0;orthogonalLoop=1;jettySize=auto;html=1;exitX=0.5;exitY=1;exitDx=0;exitDy=0;entryX=0.5;entryY=0;entryDx=0;entryDy=0;fontSize=17;" edge="1" parent="1" source="mSaTmp_OGd0m0QkSYPxG-16" target="mSaTmp_OGd0m0QkSYPxG-25">
          <mxGeometry relative="1" as="geometry" />
        </mxCell>
        <mxCell id="mSaTmp_OGd0m0QkSYPxG-27" value="o" style="edgeLabel;html=1;align=center;verticalAlign=middle;resizable=0;points=[];fontSize=17;" vertex="1" connectable="0" parent="mSaTmp_OGd0m0QkSYPxG-26">
          <mxGeometry x="-0.3333" y="-3" relative="1" as="geometry">
            <mxPoint x="-12" as="offset" />
          </mxGeometry>
        </mxCell>
        <mxCell id="mSaTmp_OGd0m0QkSYPxG-16" value="an" style="ellipse;whiteSpace=wrap;html=1;aspect=fixed;fontSize=17;" vertex="1" parent="1">
          <mxGeometry x="270" y="280" width="50" height="50" as="geometry" />
        </mxCell>
        <mxCell id="mSaTmp_OGd0m0QkSYPxG-30" style="edgeStyle=none;rounded=0;orthogonalLoop=1;jettySize=auto;html=1;exitX=0.5;exitY=1;exitDx=0;exitDy=0;entryX=0.5;entryY=0;entryDx=0;entryDy=0;fontSize=17;" edge="1" parent="1" source="mSaTmp_OGd0m0QkSYPxG-17" target="mSaTmp_OGd0m0QkSYPxG-28">
          <mxGeometry relative="1" as="geometry" />
        </mxCell>
        <mxCell id="mSaTmp_OGd0m0QkSYPxG-32" value="o" style="edgeLabel;html=1;align=center;verticalAlign=middle;resizable=0;points=[];fontSize=17;" vertex="1" connectable="0" parent="mSaTmp_OGd0m0QkSYPxG-30">
          <mxGeometry x="-0.2667" y="-2" relative="1" as="geometry">
            <mxPoint x="17" as="offset" />
          </mxGeometry>
        </mxCell>
        <mxCell id="mSaTmp_OGd0m0QkSYPxG-31" value="y" style="edgeStyle=none;rounded=0;orthogonalLoop=1;jettySize=auto;html=1;exitX=1;exitY=1;exitDx=0;exitDy=0;fontSize=17;" edge="1" parent="1" source="mSaTmp_OGd0m0QkSYPxG-17" target="mSaTmp_OGd0m0QkSYPxG-29">
          <mxGeometry y="21" relative="1" as="geometry">
            <mxPoint as="offset" />
          </mxGeometry>
        </mxCell>
        <mxCell id="mSaTmp_OGd0m0QkSYPxG-17" value="" style="ellipse;whiteSpace=wrap;html=1;aspect=fixed;fontSize=17;" vertex="1" parent="1">
          <mxGeometry x="350" y="280" width="50" height="50" as="geometry" />
        </mxCell>
        <mxCell id="mSaTmp_OGd0m0QkSYPxG-44" value="o" style="edgeStyle=none;rounded=0;orthogonalLoop=1;jettySize=auto;html=1;exitX=0.5;exitY=1;exitDx=0;exitDy=0;entryX=0.5;entryY=0;entryDx=0;entryDy=0;fontSize=17;" edge="1" parent="1" source="mSaTmp_OGd0m0QkSYPxG-18" target="mSaTmp_OGd0m0QkSYPxG-43">
          <mxGeometry x="0.3333" y="15" relative="1" as="geometry">
            <mxPoint as="offset" />
          </mxGeometry>
        </mxCell>
        <mxCell id="mSaTmp_OGd0m0QkSYPxG-18" value="" style="ellipse;whiteSpace=wrap;html=1;aspect=fixed;fontSize=17;" vertex="1" parent="1">
          <mxGeometry x="540" y="280" width="50" height="50" as="geometry" />
        </mxCell>
        <mxCell id="mSaTmp_OGd0m0QkSYPxG-36" value="t" style="edgeStyle=none;rounded=0;orthogonalLoop=1;jettySize=auto;html=1;exitX=0.5;exitY=1;exitDx=0;exitDy=0;entryX=0.5;entryY=0;entryDx=0;entryDy=0;fontSize=17;" edge="1" parent="1" source="mSaTmp_OGd0m0QkSYPxG-25" target="mSaTmp_OGd0m0QkSYPxG-33">
          <mxGeometry x="-0.3333" y="-15" relative="1" as="geometry">
            <mxPoint as="offset" />
          </mxGeometry>
        </mxCell>
        <mxCell id="mSaTmp_OGd0m0QkSYPxG-25" value="" style="ellipse;whiteSpace=wrap;html=1;aspect=fixed;fontSize=17;" vertex="1" parent="1">
          <mxGeometry x="270" y="360" width="50" height="50" as="geometry" />
        </mxCell>
        <mxCell id="mSaTmp_OGd0m0QkSYPxG-35" value="l" style="edgeStyle=none;rounded=0;orthogonalLoop=1;jettySize=auto;html=1;exitX=0.5;exitY=1;exitDx=0;exitDy=0;entryX=0.5;entryY=0;entryDx=0;entryDy=0;fontSize=17;" edge="1" parent="1" source="mSaTmp_OGd0m0QkSYPxG-28" target="mSaTmp_OGd0m0QkSYPxG-34">
          <mxGeometry x="-0.3333" y="15" relative="1" as="geometry">
            <mxPoint as="offset" />
          </mxGeometry>
        </mxCell>
        <mxCell id="mSaTmp_OGd0m0QkSYPxG-28" value="" style="ellipse;whiteSpace=wrap;html=1;aspect=fixed;fontSize=17;" vertex="1" parent="1">
          <mxGeometry x="350" y="360" width="50" height="50" as="geometry" />
        </mxCell>
        <mxCell id="mSaTmp_OGd0m0QkSYPxG-29" value="boy" style="ellipse;whiteSpace=wrap;html=1;aspect=fixed;fontSize=17;" vertex="1" parent="1">
          <mxGeometry x="430" y="360" width="50" height="50" as="geometry" />
        </mxCell>
        <mxCell id="mSaTmp_OGd0m0QkSYPxG-39" value="h" style="edgeStyle=none;rounded=0;orthogonalLoop=1;jettySize=auto;html=1;exitX=0.5;exitY=1;exitDx=0;exitDy=0;entryX=0.5;entryY=0;entryDx=0;entryDy=0;fontSize=17;" edge="1" parent="1" source="mSaTmp_OGd0m0QkSYPxG-33" target="mSaTmp_OGd0m0QkSYPxG-37">
          <mxGeometry x="-0.3333" y="-15" relative="1" as="geometry">
            <mxPoint as="offset" />
          </mxGeometry>
        </mxCell>
        <mxCell id="mSaTmp_OGd0m0QkSYPxG-33" value="" style="ellipse;whiteSpace=wrap;html=1;aspect=fixed;fontSize=17;" vertex="1" parent="1">
          <mxGeometry x="270" y="440" width="50" height="50" as="geometry" />
        </mxCell>
        <mxCell id="mSaTmp_OGd0m0QkSYPxG-34" value="bool" style="ellipse;whiteSpace=wrap;html=1;aspect=fixed;fontSize=17;" vertex="1" parent="1">
          <mxGeometry x="350" y="440" width="50" height="50" as="geometry" />
        </mxCell>
        <mxCell id="mSaTmp_OGd0m0QkSYPxG-40" value="e" style="edgeStyle=none;rounded=0;orthogonalLoop=1;jettySize=auto;html=1;exitX=0.5;exitY=1;exitDx=0;exitDy=0;entryX=0.5;entryY=0;entryDx=0;entryDy=0;fontSize=17;" edge="1" parent="1" source="mSaTmp_OGd0m0QkSYPxG-37" target="mSaTmp_OGd0m0QkSYPxG-38">
          <mxGeometry x="-0.3333" y="-15" relative="1" as="geometry">
            <mxPoint as="offset" />
          </mxGeometry>
        </mxCell>
        <mxCell id="mSaTmp_OGd0m0QkSYPxG-37" value="" style="ellipse;whiteSpace=wrap;html=1;aspect=fixed;fontSize=17;" vertex="1" parent="1">
          <mxGeometry x="270" y="520" width="50" height="50" as="geometry" />
        </mxCell>
        <mxCell id="mSaTmp_OGd0m0QkSYPxG-42" value="r" style="edgeStyle=none;rounded=0;orthogonalLoop=1;jettySize=auto;html=1;exitX=0.5;exitY=1;exitDx=0;exitDy=0;entryX=0.5;entryY=0;entryDx=0;entryDy=0;fontSize=17;" edge="1" parent="1" source="mSaTmp_OGd0m0QkSYPxG-38" target="mSaTmp_OGd0m0QkSYPxG-41">
          <mxGeometry x="0.3333" y="-15" relative="1" as="geometry">
            <mxPoint as="offset" />
          </mxGeometry>
        </mxCell>
        <mxCell id="mSaTmp_OGd0m0QkSYPxG-38" value="" style="ellipse;whiteSpace=wrap;html=1;aspect=fixed;fontSize=17;" vertex="1" parent="1">
          <mxGeometry x="270" y="600" width="50" height="50" as="geometry" />
        </mxCell>
        <mxCell id="mSaTmp_OGd0m0QkSYPxG-41" value="another" style="ellipse;whiteSpace=wrap;html=1;aspect=fixed;fontSize=17;" vertex="1" parent="1">
          <mxGeometry x="260" y="680" width="70" height="70" as="geometry" />
        </mxCell>
        <mxCell id="mSaTmp_OGd0m0QkSYPxG-43" value="zoo" style="ellipse;whiteSpace=wrap;html=1;aspect=fixed;fontSize=17;" vertex="1" parent="1">
          <mxGeometry x="540" y="360" width="50" height="50" as="geometry" />
        </mxCell>
      </root>
    </mxGraphModel>
  </diagram>
  <diagram id="1ZXABmlX4oyUxEDY7Sm7" name="patricia">
    <mxGraphModel dx="1159" dy="784" grid="1" gridSize="10" guides="1" tooltips="1" connect="1" arrows="1" fold="1" page="1" pageScale="1" pageWidth="850" pageHeight="1100" math="1" shadow="0">
      <root>
        <mxCell id="0" />
        <mxCell id="1" parent="0" />
        <mxCell id="eKOyH6PqPEcGrcMKaTRk-1" style="edgeStyle=none;rounded=0;orthogonalLoop=1;jettySize=auto;html=1;exitX=0;exitY=1;exitDx=0;exitDy=0;entryX=1;entryY=0;entryDx=0;entryDy=0;fontSize=17;" edge="1" parent="1" source="eKOyH6PqPEcGrcMKaTRk-9" target="eKOyH6PqPEcGrcMKaTRk-12">
          <mxGeometry relative="1" as="geometry" />
        </mxCell>
        <mxCell id="eKOyH6PqPEcGrcMKaTRk-2" value="a" style="edgeLabel;html=1;align=center;verticalAlign=middle;resizable=0;points=[];fontSize=17;" vertex="1" connectable="0" parent="eKOyH6PqPEcGrcMKaTRk-1">
          <mxGeometry x="0.1058" y="-1" relative="1" as="geometry">
            <mxPoint x="-11" y="-22" as="offset" />
          </mxGeometry>
        </mxCell>
        <mxCell id="eKOyH6PqPEcGrcMKaTRk-3" style="edgeStyle=none;rounded=0;orthogonalLoop=1;jettySize=auto;html=1;exitX=1;exitY=1;exitDx=0;exitDy=0;entryX=0;entryY=0;entryDx=0;entryDy=0;fontSize=17;" edge="1" parent="1" source="eKOyH6PqPEcGrcMKaTRk-9" target="eKOyH6PqPEcGrcMKaTRk-18">
          <mxGeometry relative="1" as="geometry" />
        </mxCell>
        <mxCell id="eKOyH6PqPEcGrcMKaTRk-4" value="zoo" style="edgeLabel;html=1;align=center;verticalAlign=middle;resizable=0;points=[];fontSize=17;" vertex="1" connectable="0" parent="eKOyH6PqPEcGrcMKaTRk-3">
          <mxGeometry x="-0.0092" y="1" relative="1" as="geometry">
            <mxPoint x="10" y="-19" as="offset" />
          </mxGeometry>
        </mxCell>
        <mxCell id="eKOyH6PqPEcGrcMKaTRk-7" style="edgeStyle=none;rounded=0;orthogonalLoop=1;jettySize=auto;html=1;exitX=0.5;exitY=1;exitDx=0;exitDy=0;entryX=0.5;entryY=0;entryDx=0;entryDy=0;fontSize=17;" edge="1" parent="1" source="eKOyH6PqPEcGrcMKaTRk-9" target="eKOyH6PqPEcGrcMKaTRk-15">
          <mxGeometry relative="1" as="geometry" />
        </mxCell>
        <mxCell id="eKOyH6PqPEcGrcMKaTRk-8" value="bo" style="edgeLabel;html=1;align=center;verticalAlign=middle;resizable=0;points=[];fontSize=17;" vertex="1" connectable="0" parent="eKOyH6PqPEcGrcMKaTRk-7">
          <mxGeometry x="0.2623" y="-1" relative="1" as="geometry">
            <mxPoint x="20" as="offset" />
          </mxGeometry>
        </mxCell>
        <mxCell id="eKOyH6PqPEcGrcMKaTRk-9" value="" style="ellipse;whiteSpace=wrap;html=1;aspect=fixed;fontSize=17;" vertex="1" parent="1">
          <mxGeometry x="400" y="110" width="50" height="50" as="geometry" />
        </mxCell>
        <mxCell id="eKOyH6PqPEcGrcMKaTRk-10" style="edgeStyle=none;rounded=0;orthogonalLoop=1;jettySize=auto;html=1;exitX=0;exitY=1;exitDx=0;exitDy=0;fontSize=17;" edge="1" parent="1" source="eKOyH6PqPEcGrcMKaTRk-12" target="eKOyH6PqPEcGrcMKaTRk-24">
          <mxGeometry relative="1" as="geometry" />
        </mxCell>
        <mxCell id="eKOyH6PqPEcGrcMKaTRk-11" value="n" style="edgeLabel;html=1;align=center;verticalAlign=middle;resizable=0;points=[];fontSize=17;" vertex="1" connectable="0" parent="eKOyH6PqPEcGrcMKaTRk-10">
          <mxGeometry y="-1" relative="1" as="geometry">
            <mxPoint x="-10" y="-9" as="offset" />
          </mxGeometry>
        </mxCell>
        <mxCell id="eKOyH6PqPEcGrcMKaTRk-12" value="a" style="ellipse;whiteSpace=wrap;html=1;aspect=fixed;fontSize=17;" vertex="1" parent="1">
          <mxGeometry x="310" y="200" width="50" height="50" as="geometry" />
        </mxCell>
        <mxCell id="eKOyH6PqPEcGrcMKaTRk-13" style="edgeStyle=none;rounded=0;orthogonalLoop=1;jettySize=auto;html=1;exitX=0;exitY=1;exitDx=0;exitDy=0;entryX=0.5;entryY=0;entryDx=0;entryDy=0;fontSize=17;" edge="1" parent="1" source="eKOyH6PqPEcGrcMKaTRk-15" target="eKOyH6PqPEcGrcMKaTRk-38">
          <mxGeometry relative="1" as="geometry">
            <mxPoint x="375" y="280" as="targetPoint" />
          </mxGeometry>
        </mxCell>
        <mxCell id="eKOyH6PqPEcGrcMKaTRk-14" value="ol" style="edgeLabel;html=1;align=center;verticalAlign=middle;resizable=0;points=[];fontSize=17;" vertex="1" connectable="0" parent="eKOyH6PqPEcGrcMKaTRk-13">
          <mxGeometry x="-0.4" y="-1" relative="1" as="geometry">
            <mxPoint x="8" y="12" as="offset" />
          </mxGeometry>
        </mxCell>
        <mxCell id="eKOyH6PqPEcGrcMKaTRk-15" value="" style="ellipse;whiteSpace=wrap;html=1;aspect=fixed;fontSize=17;" vertex="1" parent="1">
          <mxGeometry x="390" y="200" width="50" height="50" as="geometry" />
        </mxCell>
        <mxCell id="eKOyH6PqPEcGrcMKaTRk-18" value="zoo" style="ellipse;whiteSpace=wrap;html=1;aspect=fixed;fontSize=17;" vertex="1" parent="1">
          <mxGeometry x="520" y="200" width="50" height="50" as="geometry" />
        </mxCell>
        <mxCell id="eKOyH6PqPEcGrcMKaTRk-20" style="edgeStyle=none;rounded=0;orthogonalLoop=1;jettySize=auto;html=1;exitX=0;exitY=0.5;exitDx=0;exitDy=0;fontSize=17;" edge="1" parent="1">
          <mxGeometry relative="1" as="geometry">
            <mxPoint x="480" y="225" as="sourcePoint" />
            <mxPoint x="480" y="225" as="targetPoint" />
          </mxGeometry>
        </mxCell>
        <mxCell id="eKOyH6PqPEcGrcMKaTRk-22" style="edgeStyle=none;rounded=0;orthogonalLoop=1;jettySize=auto;html=1;exitX=0;exitY=1;exitDx=0;exitDy=0;entryX=1;entryY=0;entryDx=0;entryDy=0;fontSize=17;" edge="1" parent="1" source="eKOyH6PqPEcGrcMKaTRk-24" target="eKOyH6PqPEcGrcMKaTRk-43">
          <mxGeometry relative="1" as="geometry">
            <mxPoint x="295" y="360" as="targetPoint" />
          </mxGeometry>
        </mxCell>
        <mxCell id="eKOyH6PqPEcGrcMKaTRk-23" value="other" style="edgeLabel;html=1;align=center;verticalAlign=middle;resizable=0;points=[];fontSize=17;" vertex="1" connectable="0" parent="eKOyH6PqPEcGrcMKaTRk-22">
          <mxGeometry x="-0.3333" y="-3" relative="1" as="geometry">
            <mxPoint x="-32" y="-3" as="offset" />
          </mxGeometry>
        </mxCell>
        <mxCell id="eKOyH6PqPEcGrcMKaTRk-24" value="an" style="ellipse;whiteSpace=wrap;html=1;aspect=fixed;fontSize=17;" vertex="1" parent="1">
          <mxGeometry x="240" y="270" width="50" height="50" as="geometry" />
        </mxCell>
        <mxCell id="eKOyH6PqPEcGrcMKaTRk-27" value="y" style="edgeStyle=none;rounded=0;orthogonalLoop=1;jettySize=auto;html=1;exitX=1;exitY=1;exitDx=0;exitDy=0;fontSize=17;" edge="1" parent="1" source="eKOyH6PqPEcGrcMKaTRk-15" target="eKOyH6PqPEcGrcMKaTRk-35">
          <mxGeometry y="21" relative="1" as="geometry">
            <mxPoint as="offset" />
            <mxPoint x="392.6776695296637" y="322.6776695296637" as="sourcePoint" />
          </mxGeometry>
        </mxCell>
        <mxCell id="eKOyH6PqPEcGrcMKaTRk-31" value="t" style="edgeStyle=none;rounded=0;orthogonalLoop=1;jettySize=auto;html=1;exitX=0.5;exitY=1;exitDx=0;exitDy=0;entryX=0.5;entryY=0;entryDx=0;entryDy=0;fontSize=17;" edge="1" parent="1" target="eKOyH6PqPEcGrcMKaTRk-37">
          <mxGeometry x="-0.3333" y="-15" relative="1" as="geometry">
            <mxPoint as="offset" />
            <mxPoint x="295" y="410" as="sourcePoint" />
          </mxGeometry>
        </mxCell>
        <mxCell id="eKOyH6PqPEcGrcMKaTRk-35" value="boy" style="ellipse;whiteSpace=wrap;html=1;aspect=fixed;fontSize=17;" vertex="1" parent="1">
          <mxGeometry x="450" y="270" width="50" height="50" as="geometry" />
        </mxCell>
        <mxCell id="eKOyH6PqPEcGrcMKaTRk-36" value="h" style="edgeStyle=none;rounded=0;orthogonalLoop=1;jettySize=auto;html=1;exitX=0.5;exitY=1;exitDx=0;exitDy=0;entryX=0.5;entryY=0;entryDx=0;entryDy=0;fontSize=17;" edge="1" parent="1" target="eKOyH6PqPEcGrcMKaTRk-40">
          <mxGeometry x="-0.3333" y="-15" relative="1" as="geometry">
            <mxPoint as="offset" />
            <mxPoint x="295" y="490" as="sourcePoint" />
          </mxGeometry>
        </mxCell>
        <mxCell id="eKOyH6PqPEcGrcMKaTRk-38" value="bool" style="ellipse;whiteSpace=wrap;html=1;aspect=fixed;fontSize=17;" vertex="1" parent="1">
          <mxGeometry x="340" y="270" width="50" height="50" as="geometry" />
        </mxCell>
        <mxCell id="eKOyH6PqPEcGrcMKaTRk-39" value="e" style="edgeStyle=none;rounded=0;orthogonalLoop=1;jettySize=auto;html=1;exitX=0.5;exitY=1;exitDx=0;exitDy=0;entryX=0.5;entryY=0;entryDx=0;entryDy=0;fontSize=17;" edge="1" parent="1" target="eKOyH6PqPEcGrcMKaTRk-42">
          <mxGeometry x="-0.3333" y="-15" relative="1" as="geometry">
            <mxPoint as="offset" />
            <mxPoint x="295" y="570" as="sourcePoint" />
          </mxGeometry>
        </mxCell>
        <mxCell id="eKOyH6PqPEcGrcMKaTRk-43" value="another" style="ellipse;whiteSpace=wrap;html=1;aspect=fixed;fontSize=17;" vertex="1" parent="1">
          <mxGeometry x="150" y="340" width="70" height="70" as="geometry" />
        </mxCell>
      </root>
    </mxGraphModel>
  </diagram>
</mxfile>
